<mxfile host="65bd71144e">
    <diagram id="S6nF7hk4LbAtjTj3eE11" name="ページ1">
        <mxGraphModel dx="-909" dy="3105" grid="1" gridSize="10" guides="1" tooltips="1" connect="1" arrows="1" fold="1" page="1" pageScale="1" pageWidth="827" pageHeight="1169" background="none" math="0" shadow="0">
            <root>
                <mxCell id="0"/>
                <mxCell id="1" parent="0"/>
                <mxCell id="21" value="&lt;font style=&quot;font-size: 16px;&quot;&gt;ユースケース図：登場人物がシステムで何をするかを整理した図&lt;/font&gt;" style="text;html=1;strokeColor=none;fillColor=none;align=left;verticalAlign=middle;whiteSpace=wrap;rounded=0;" parent="1" vertex="1">
                    <mxGeometry x="1800" y="-2290" width="590" height="30" as="geometry"/>
                </mxCell>
                <mxCell id="22" value="" style="whiteSpace=wrap;html=1;aspect=fixed;fillColor=none;" vertex="1" parent="1">
                    <mxGeometry x="1800" y="-2200" width="460" height="460" as="geometry"/>
                </mxCell>
                <mxCell id="23" value="リバーシアプリケーション" style="text;html=1;strokeColor=none;fillColor=none;align=center;verticalAlign=middle;whiteSpace=wrap;rounded=0;" vertex="1" parent="1">
                    <mxGeometry x="1920" y="-2200" width="220" height="30" as="geometry"/>
                </mxCell>
                <mxCell id="24" value="プレイヤー" style="shape=umlActor;verticalLabelPosition=bottom;verticalAlign=top;html=1;outlineConnect=0;fillColor=none;" vertex="1" parent="1">
                    <mxGeometry x="1710" y="-2120" width="30" height="60" as="geometry"/>
                </mxCell>
                <mxCell id="25" value="対戦する" style="ellipse;whiteSpace=wrap;html=1;fillColor=none;" vertex="1" parent="1">
                    <mxGeometry x="1850" y="-2000" width="140" height="70" as="geometry"/>
                </mxCell>
                <mxCell id="27" value="" style="endArrow=none;html=1;exitX=0;exitY=0;exitDx=0;exitDy=0;" edge="1" parent="1" source="25">
                    <mxGeometry width="50" height="50" relative="1" as="geometry">
                        <mxPoint x="1760" y="-1950" as="sourcePoint"/>
                        <mxPoint x="1760" y="-2080" as="targetPoint"/>
                        <Array as="points"/>
                    </mxGeometry>
                </mxCell>
                <mxCell id="28" value="&lt;ul&gt;&lt;li&gt;対戦を開始する&lt;/li&gt;&lt;li&gt;盤面を見る&lt;/li&gt;&lt;li&gt;石を打つ&lt;/li&gt;&lt;li&gt;勝敗を確認する&lt;/li&gt;&lt;/ul&gt;" style="shape=note;whiteSpace=wrap;html=1;backgroundOutline=1;darkOpacity=0.05;fillColor=none;align=left;" vertex="1" parent="1">
                    <mxGeometry x="2040" y="-2140" width="180" height="160" as="geometry"/>
                </mxCell>
                <mxCell id="29" value="" style="endArrow=none;dashed=1;html=1;entryX=0;entryY=0.5;entryDx=0;entryDy=0;entryPerimeter=0;exitX=1;exitY=0;exitDx=0;exitDy=0;" edge="1" parent="1" source="25" target="28">
                    <mxGeometry width="50" height="50" relative="1" as="geometry">
                        <mxPoint x="1950" y="-2100" as="sourcePoint"/>
                        <mxPoint x="2000" y="-2150" as="targetPoint"/>
                    </mxGeometry>
                </mxCell>
                <mxCell id="31" value="自分の過去の対戦結果を確認する" style="ellipse;whiteSpace=wrap;html=1;fillColor=none;" vertex="1" parent="1">
                    <mxGeometry x="1850" y="-1890" width="140" height="70" as="geometry"/>
                </mxCell>
                <mxCell id="34" value="会員登録・ログイン" style="ellipse;whiteSpace=wrap;html=1;fillColor=none;" vertex="1" parent="1">
                    <mxGeometry x="1850" y="-2140" width="140" height="70" as="geometry"/>
                </mxCell>
                <mxCell id="35" value="" style="endArrow=none;html=1;entryX=0;entryY=0.5;entryDx=0;entryDy=0;" edge="1" parent="1" target="34">
                    <mxGeometry width="50" height="50" relative="1" as="geometry">
                        <mxPoint x="1760" y="-2080" as="sourcePoint"/>
                        <mxPoint x="1900" y="-1800" as="targetPoint"/>
                    </mxGeometry>
                </mxCell>
                <mxCell id="36" value="" style="endArrow=none;html=1;exitX=0;exitY=0;exitDx=0;exitDy=0;" edge="1" parent="1" source="31">
                    <mxGeometry width="50" height="50" relative="1" as="geometry">
                        <mxPoint x="1850" y="-1840" as="sourcePoint"/>
                        <mxPoint x="1760" y="-2080" as="targetPoint"/>
                    </mxGeometry>
                </mxCell>
                <mxCell id="37" value="一人で白黒交互に打つ" style="ellipse;whiteSpace=wrap;html=1;fillColor=none;" vertex="1" parent="1">
                    <mxGeometry x="2100" y="-1960" width="140" height="70" as="geometry"/>
                </mxCell>
                <mxCell id="38" value="コンピュータと対戦する" style="ellipse;whiteSpace=wrap;html=1;fillColor=none;" vertex="1" parent="1">
                    <mxGeometry x="2100" y="-1880" width="140" height="70" as="geometry"/>
                </mxCell>
                <mxCell id="39" value="他のプレイヤーと対戦する" style="ellipse;whiteSpace=wrap;html=1;fillStyle=auto;" vertex="1" parent="1">
                    <mxGeometry x="2100" y="-1800" width="140" height="70" as="geometry"/>
                </mxCell>
                <mxCell id="40" value="Extends" style="endArrow=block;endSize=16;endFill=0;html=1;entryX=1;entryY=0.5;entryDx=0;entryDy=0;exitX=0;exitY=0;exitDx=0;exitDy=0;" edge="1" parent="1" source="37" target="25">
                    <mxGeometry width="160" relative="1" as="geometry">
                        <mxPoint x="2010" y="-1890" as="sourcePoint"/>
                        <mxPoint x="2170" y="-1890" as="targetPoint"/>
                    </mxGeometry>
                </mxCell>
                <mxCell id="41" value="Extends" style="endArrow=block;endSize=16;endFill=0;html=1;entryX=0.969;entryY=0.687;entryDx=0;entryDy=0;exitX=-0.005;exitY=0.542;exitDx=0;exitDy=0;exitPerimeter=0;entryPerimeter=0;" edge="1" parent="1" source="38" target="25">
                    <mxGeometry width="160" relative="1" as="geometry">
                        <mxPoint x="2130.5025253169424" y="-1939.7487373415288" as="sourcePoint"/>
                        <mxPoint x="2000" y="-1955" as="targetPoint"/>
                    </mxGeometry>
                </mxCell>
                <mxCell id="43" value="Extends" style="endArrow=block;endSize=16;endFill=0;html=1;entryX=1;entryY=1;entryDx=0;entryDy=0;exitX=0;exitY=0.5;exitDx=0;exitDy=0;" edge="1" parent="1" source="39" target="25">
                    <mxGeometry width="160" relative="1" as="geometry">
                        <mxPoint x="2109.3" y="-1832.06" as="sourcePoint"/>
                        <mxPoint x="2000" y="-1955" as="targetPoint"/>
                    </mxGeometry>
                </mxCell>
                <mxCell id="44" value="プレイヤーのランキングを確認する" style="ellipse;whiteSpace=wrap;html=1;fillStyle=auto;fillColor=default;" vertex="1" parent="1">
                    <mxGeometry x="1850" y="-1780" width="140" height="70" as="geometry"/>
                </mxCell>
                <mxCell id="45" value="" style="endArrow=none;html=1;exitX=0;exitY=0;exitDx=0;exitDy=0;" edge="1" parent="1" source="44">
                    <mxGeometry width="50" height="50" relative="1" as="geometry">
                        <mxPoint x="2000" y="-1840" as="sourcePoint"/>
                        <mxPoint x="1760" y="-2080" as="targetPoint"/>
                    </mxGeometry>
                </mxCell>
                <mxCell id="46" value="" style="swimlane;startSize=0;fillStyle=auto;fillColor=none;strokeWidth=0;" vertex="1" parent="1">
                    <mxGeometry x="1920" y="-1960" width="200" height="200" as="geometry"/>
                </mxCell>
            </root>
        </mxGraphModel>
    </diagram>
</mxfile>